Coordinates
version=1
nRows=22
nColumns=24
inDegrees=yes

Units are S.I. units (second, meters, Newtons, ...)
Angles are in degrees.

endheader
time	pelvis_tilt	pelvis_list	pelvis_rotation	pelvis_tx	pelvis_ty	pelvis_tz	hip_flexion_r	hip_adduction_r	hip_rotation_r	knee_angle_r	ankle_angle_r	subtalar_angle_r	mtp_angle_r	hip_flexion_l	hip_adduction_l	hip_rotation_l	knee_angle_l	ankle_angle_l	subtalar_angle_l	mtp_angle_l	lumbar_extension	lumbar_bending	lumbar_rotation
      2.21000000	      5.46759833	     -5.17328062	     -3.61451910	     -0.60697880	      0.99374086	      0.04139624	    -23.30949155	      5.40724287	     -1.52196595	     -3.01793524	     15.66109870	     10.98669597	      4.23513097	     15.38636850	     -6.19576602	    -18.19133166	     -0.48494128	      0.36334132	      9.14713067	     19.34382522	    -16.47904674	      8.06142715	      7.30527646
      2.21500000	      5.39154060	     -5.04083328	     -3.67098865	     -0.60148182	      0.99327186	      0.04093220	    -23.44043904	      5.17601262	     -1.40532404	     -3.22139406	     15.66398133	     10.97797331	      4.29649359	     15.33313905	     -6.00013684	    -18.05735781	     -0.63691612	      0.05542347	      8.94311034	     19.31884808	    -16.38679519	      7.88290927	      7.27830646
      2.22000000	      5.37964801	     -4.89301507	     -3.66749281	     -0.59600469	      0.99292656	      0.04036720	    -23.63232963	      4.94223110	     -1.40423271	     -3.42743397	     15.64312796	     11.09505321	      4.50821136	     15.22394892	     -5.76650414	    -17.71076142	     -0.81438925	     -0.35477482	      8.41127020	     19.36867399	    -16.36425565	      7.69466990	      7.21701454
      2.22500000	      5.27602880	     -4.74940622	     -3.64900981	     -0.59054230	      0.99252417	      0.03977701	    -23.69112717	      4.72865610	     -1.38679956	     -3.68535805	     15.40138737	     11.08841015	      6.76391865	     15.22026256	     -5.54303068	    -17.29836162	     -0.99504011	     -1.06098469	      7.84260653	     21.05952072	    -16.24297620	      7.52343021	      7.10875096
      2.23000000	      5.27051515	     -4.53115888	     -3.62235653	     -0.58497599	      0.99231843	      0.03919328	    -23.87562398	      4.43569130	     -1.38787047	     -3.91006480	     15.33885423	     11.12187974	      6.87321762	     15.09526134	     -5.23675616	    -16.89808336	     -1.18860450	     -1.56236529	      7.42843849	     20.99509995	    -16.21456149	      7.25908777	      7.00654256
      2.23500000	      5.24774823	     -4.32216217	     -3.56870351	     -0.57946297	      0.99217909	      0.03853689	    -23.99559549	      4.16113682	     -1.45079570	     -4.21151749	     15.25768375	     11.22731355	      7.11080444	     14.99864032	     -4.93520170	    -16.39598066	     -1.39231209	     -2.15734613	      6.91877949	     21.02530347	    -16.17730699	      7.01670340	      6.86313725
      2.24000000	      5.16613621	     -4.11475618	     -3.50636849	     -0.57395725	      0.99203677	      0.03787814	    -24.03643156	      3.90080696	     -1.47602738	     -4.52328298	     14.89647980	     11.17021549	      9.65073982	     14.96624065	     -4.64222090	    -15.82701035	     -1.58350700	     -3.01092229	      6.29613207	     22.78992909	    -16.07622188	      6.78025187	      6.73381180
      2.24500000	      5.16501922	     -3.83784953	     -3.43139814	     -0.56837602	      0.99207857	      0.03718875	    -24.16459149	      3.56751747	     -1.54562293	     -4.84169118	     14.78873924	     11.20942041	      9.77838010	     14.84732354	     -4.27470314	    -15.29276693	     -1.81168744	     -3.60401005	      5.87430498	     22.70426637	    -16.05591692	      6.46350099	      6.58001848
      2.25000000	      5.11493144	     -3.60226340	     -3.32262232	     -0.56284894	      0.99213532	      0.03642734	    -24.19097622	      3.29235864	     -1.66213612	     -5.23396937	     14.41822856	     11.20385573	     11.99897021	     14.78797781	     -3.94743780	    -14.64744315	     -2.02989075	     -4.37169363	      5.27298167	     23.71967009	    -15.99104314	      6.20788007	      6.40674433
      2.25500000	      5.12037916	     -3.30496452	     -3.21098901	     -0.55724979	      0.99235041	      0.03566020	    -24.26739822	      2.95148794	     -1.81581576	     -5.65391923	     14.24843964	     11.28457291	     12.15165972	     14.66776446	     -3.55922109	    -14.06382456	     -2.27852585	     -4.96216108	      4.83267029	     23.63449669	    -15.98182072	      5.87878684	      6.22041400
      2.26000000	      5.10935714	     -3.00945075	     -3.07782240	     -0.55164234	      0.99263606	      0.03483367	    -24.29585562	      2.61790925	     -2.01615395	     -6.12477288	     14.03983038	     11.42392956	     12.46900385	     14.57027107	     -3.17381932	    -13.45162015	     -2.54036821	     -5.55209298	      4.36742491	     23.62874336	    -15.95555491	      5.56164178	      6.02311812
      2.26500000	      5.07607525	     -2.72534773	     -2.93397225	     -0.54605586	      0.99295328	      0.03399362	    -24.28883390	      2.30633981	     -2.17471470	     -6.58913912	     13.48201211	     11.33161147	     15.73895990	     14.51799334	     -2.80969727	    -12.85114647	     -2.84002807	     -6.23871440	      3.83341999	     24.71341994	    -15.91188773	      5.25948956	      5.84281140
      2.27000000	      5.08479004	     -2.40800539	     -2.77953882	     -0.54040576	      0.99340385	      0.03310840	    -24.29027801	      1.95443437	     -2.42289521	     -7.14361256	     13.24428168	     11.48777618	     15.89796449	     14.41623513	     -2.40949807	    -12.29818874	     -3.16292824	     -6.70311898	      3.40043124	     24.58804285	    -15.91140629	      4.92412312	      5.63263501
      2.27500000	      5.07682546	     -2.10435890	     -2.60398288	     -0.53474781	      0.99390989	      0.03216770	    -24.23593796	      1.61851829	     -2.72209168	     -7.76690365	     12.96227354	     11.70771775	     16.22313835	     14.33533493	     -2.02440384	    -11.73529988	     -3.49708481	     -7.13780280	      2.95236291	     24.48340768	    -15.89442101	      4.61245463	      5.42162074
      2.28000000	      5.03121559	     -1.82792007	     -2.41516170	     -0.52908680	      0.99443404	      0.03119853	    -24.11872654	      1.31697987	     -3.01205543	     -8.40027874	     12.27566190	     11.70097109	     19.93304305	     14.31382098	     -1.67948675	    -11.22173927	     -3.88116695	     -7.50308799	      2.63620793	     24.47853240	    -15.83866226	      4.33901247	      5.22997247
      2.28500000	      5.08116493	     -1.51793103	     -2.25221556	     -0.52338589	      0.99516852	      0.03022884	    -24.07027826	      0.95523089	     -3.31827584	     -9.11471482	     11.92224303	     11.92753721	     20.12564541	     14.15601025	     -1.29554519	    -10.77509270	     -4.22225296	     -7.85191157	      2.18803888	     24.34508888	    -15.89195351	      4.01939264	      5.05568995
      2.29000000	      5.09678055	     -1.23463069	     -2.04972957	     -0.51768313	      0.99588963	      0.02916643	    -23.93749795	      0.62320599	     -3.71265630	     -9.91830287	     11.54172549	     12.26678523	     20.52618715	     14.04852546	     -0.93641497	    -10.32221641	     -4.59476627	     -8.10682974	      1.80117990	     24.18590439	    -15.90870894	      3.74722845	      4.85012123
      2.29500000	      5.10182952	     -0.96733989	     -1.87783385	     -0.51196908	      0.99668479	      0.02816254	    -23.77213118	      0.30049257	     -3.99568467	    -10.71899391	     10.71265665	     12.23531150	     24.38834203	     13.94210531	     -0.60935162	     -9.97583941	     -4.97923063	     -8.18055701	      1.58452579	     23.26450445	    -15.91808529	      3.48403531	      4.67331453
      2.30000000	      5.11324741	     -0.70781277	     -1.69095462	     -0.50623259	      0.99752083	      0.02706766	    -23.55147110	     -0.03767862	     -4.40163539	    -11.66711016	     10.27884850	     12.64932457	     24.60439279	     13.81094278	     -0.28164526	     -9.64389314	     -5.32939486	     -8.33714058	      1.30696484	     23.15286179	    -15.93233925	      3.24234584	      4.50287387
      2.30500000	      5.12965260	     -0.45691228	     -1.51802274	     -0.50050047	      0.99842293	      0.02599033	    -23.30858717	     -0.37352625	     -4.73292162	    -12.63066522	      9.52398692	     12.78015314	     27.27761423	     13.65974513	      0.03477010	     -9.36181454	     -5.67632886	     -8.29813102	      1.10379115	     22.10042950	    -15.95590848	      3.00742698	      4.33917059
      2.31000000	      5.12038456	     -0.22200102	     -1.35829854	     -0.49475201	      0.99933436	      0.02489782	    -22.97480547	     -0.72329609	     -5.10310030	    -13.72511023	      8.97918281	     13.22860419	     27.43145402	     13.50925637	      0.33109868	     -9.16280769	     -5.97496464	     -8.35937186	      0.98187140	     22.01138731	    -15.95221317	      2.79318702	      4.18484043
      2.31500000	      5.13424581	     -0.00534150	     -1.17407764	     -0.48908184	      1.00030000	      0.02374096	    -22.62525052	     -1.05169049	     -5.45941979	    -14.86199811	      8.18446526	     13.39365851	     29.97110989	     13.32050053	      0.62370978	     -8.88794246	     -6.25562771	     -8.21439500	      0.85631361	     20.58545493	    -15.98177527	      2.60786352	      4.04304641
